{
  "accessors": [
    {
      "bufferView": 2,
      "componentType": 5126,
      "count": 10448,
      "max": [
        635.056396484375,
        635.0564575195313,
        637.08056640625
      ],
      "min": [
        -635.056396484375,
        -635.056396484375,
        -637.08837890625
      ],
      "type": "VEC3"
    },
    {
      "bufferView": 2,
      "byteOffset": 125376,
      "componentType": 5126,
      "count": 10448,
      "max": [
        1.0,
        1.0,
        1.0
      ],
      "min": [
        -1.0,
        -1.0,
        -1.0
      ],
      "type": "VEC3"
    },
    {
      "bufferView": 1,
      "componentType": 5126,
      "count": 10448,
      "max": [
        1.0000001192092896,
        1.0000001192092896
      ],
      "min": [
        0.0,
        0.0
      ],
      "type": "VEC2"
    },
    {
      "bufferView": 0,
      "componentType": 5125,
      "count": 56064,
      "type": "SCALAR"
    },
    {
      "bufferView": 2,
      "byteOffset": 250752,
      "componentType": 5126,
      "count": 10448,
      "max": [
        637.0501708984375,
        637.050048828125,
        639.0782470703125
      ],
      "min": [
        -637.0499877929688,
        -637.0499877929688,
        -639.0860595703125
      ],
      "type": "VEC3"
    },
    {
      "bufferView": 2,
      "byteOffset": 376128,
      "componentType": 5126,
      "count": 10448,
      "max": [
        1.0,
        1.0,
        1.0
      ],
      "min": [
        -1.0,
        -1.0,
        -1.0
      ],
      "type": "VEC3"
    },
    {
      "bufferView": 1,
      "byteOffset": 83584,
      "componentType": 5126,
      "count": 10448,
      "max": [
        1.0000001192092896,
        1.0000001192092896
      ],
      "min": [
        0.0,
        0.0
      ],
      "type": "VEC2"
    },
    {
      "bufferView": 0,
      "byteOffset": 224256,
      "componentType": 5125,
      "count": 56064,
      "type": "SCALAR"
    },
    {
      "bufferView": 2,
      "byteOffset": 501504,
      "componentType": 5126,
      "count": 2468,
      "max": [
        642.1000366210938,
        642.1000366210938,
        642.0999755859375
      ],
      "min": [
        -642.0999145507813,
        -642.0999145507813,
        -642.0999755859375
      ],
      "type": "VEC3"
    },
    {
      "bufferView": 2,
      "byteOffset": 531120,
      "componentType": 5126,
      "count": 2468,
      "max": [
        1.0,
        1.0,
        1.0
      ],
      "min": [
        -1.0,
        -1.0,
        -1.0
      ],
      "type": "VEC3"
    },
    {
      "bufferView": 1,
      "byteOffset": 167168,
      "componentType": 5126,
      "count": 2468,
      "max": [
        1.0,
        1.0
      ],
      "min": [
        0.0,
        0.0
      ],
      "type": "VEC2"
    },
    {
      "bufferView": 0,
      "byteOffset": 448512,
      "componentType": 5125,
      "count": 13824,
      "type": "SCALAR"
    },
    {
      "bufferView": 3,
      "componentType": 5126,
      "count": 2,
      "max": [
        1.0,
        0.0,
        0.0,
        0.0,
        0.0,
        1.0,
        0.0,
        0.0,
        0.0,
        0.0,
        1.0,
        0.0,
        0.0,
        0.0,
        0.0,
        1.0
      ],
      "min": [
        1.0,
        0.0,
        0.0,
        0.0,
        0.0,
        1.0,
        0.0,
        0.0,
        0.0,
        0.0,
        1.0,
        0.0,
        0.0,
        0.0,
        0.0,
        1.0
      ],
      "type": "MAT4"
    },
    {
      "bufferView": 3,
      "byteOffset": 128,
      "componentType": 5126,
      "count": 2,
      "max": [
        1.0,
        0.0,
        0.0,
        0.0,
        0.0,
        1.0,
        0.0,
        0.0,
        0.0,
        0.0,
        1.0,
        0.0,
        0.0,
        0.0,
        0.0,
        1.0
      ],
      "min": [
        1.0,
        0.0,
        0.0,
        0.0,
        0.0,
        1.0,
        0.0,
        0.0,
        0.0,
        0.0,
        1.0,
        0.0,
        0.0,
        0.0,
        0.0,
        1.0
      ],
      "type": "MAT4"
    },
    {
      "bufferView": 3,
      "byteOffset": 256,
      "componentType": 5126,
      "count": 2,
      "max": [
        1.0,
        0.0,
        0.0,
        0.0,
        0.0,
        1.0,
        0.0,
        0.0,
        0.0,
        0.0,
        1.0,
        0.0,
        0.0,
        0.0,
        0.0,
        1.0
      ],
      "min": [
        1.0,
        0.0,
        0.0,
        0.0,
        0.0,
        1.0,
        0.0,
        0.0,
        0.0,
        0.0,
        1.0,
        0.0,
        0.0,
        0.0,
        0.0,
        1.0
      ],
      "type": "MAT4"
    },
    {
      "bufferView": 4,
      "componentType": 5126,
      "count": 2469,
      "max": [
        60.79999923706055
      ],
      "min": [
        0.01666666753590107
      ],
      "type": "SCALAR"
    },
    {
      "bufferView": 5,
      "componentType": 5126,
      "count": 2469,
      "max": [
        0.0,
        0.0,
        1.0,
        1.0
      ],
      "min": [
        0.0,
        0.0,
        -0.8657383918762207,
        -0.4990057349205017
      ],
      "type": "VEC4"
    },
    {
      "bufferView": 4,
      "byteOffset": 9876,
      "componentType": 5126,
      "count": 2469,
      "max": [
        60.79999923706055
      ],
      "min": [
        0.01666666753590107
      ],
      "type": "SCALAR"
    },
    {
      "bufferView": 5,
      "byteOffset": 39504,
      "componentType": 5126,
      "count": 2469,
      "max": [
        0.0,
        0.0,
        0.9999996423721313,
        1.0
      ],
      "min": [
        0.0,
        0.0,
        -0.8657381534576416,
        -0.49900609254837036
      ],
      "type": "VEC4"
    }
  ],
  "animations": [
    {
      "channels": [
        {
          "sampler": 0,
          "target": {
            "node": 7,
            "path": "rotation"
          }
        },
        {
          "sampler": 1,
          "target": {
            "node": 13,
            "path": "rotation"
          }
        }
      ],
      "name": "Earth Rotation",
      "samplers": [
        {
          "input": 15,
          "interpolation": "LINEAR",
          "output": 16
        },
        {
          "input": 17,
          "interpolation": "LINEAR",
          "output": 18
        }
      ]
    }
  ],
  "asset": {
    "extras": {
      "author": "Mateusz Kołakowski (https://sketchfab.com/geppettoo)",
      "license": "CC-BY-4.0 (http://creativecommons.org/licenses/by/4.0/)",
      "source": "https://sketchfab.com/3d-models/hello-world-99e8f36b1e8449839c36f510bd8a9ed6",
      "title": "Hello World!"
    },
    "generator": "Sketchfab-16.7.0",
    "version": "2.0"
  },
  "bufferViews": [
    {
      "buffer": 0,
      "byteLength": 503808,
      "name": "floatBufferViews",
      "target": 34963
    },
    {
      "buffer": 0,
      "byteLength": 186912,
      "byteOffset": 503808,
      "byteStride": 8,
      "name": "floatBufferViews",
      "target": 34962
    },
    {
      "buffer": 0,
      "byteLength": 560736,
      "byteOffset": 690720,
      "byteStride": 12,
      "name": "floatBufferViews",
      "target": 34962
    },
    {
      "buffer": 0,
      "byteLength": 384,
      "byteOffset": 1251456,
      "name": "floatBufferViews"
    },
    {
      "buffer": 0,
      "byteLength": 19752,
      "byteOffset": 1251840,
      "name": "floatBufferViews"
    },
    {
      "buffer": 0,
      "byteLength": 79008,
      "byteOffset": 1271592,
      "byteStride": 16,
      "name": "floatBufferViews"
    }
  ],
  "buffers": [
    {
      "byteLength": 1350600,
      "uri": "scene.bin"
    }
  ],
  "extensionsUsed": [
    "KHR_materials_specular"
  ],
  "images": [
    {
      "uri": "textures/Earth_baseColor.jpeg"
    },
    {
      "uri": "textures/Earth_metallicRoughness.png"
    },
    {
      "uri": "textures/Earth_emissive.png"
    },
    {
      "uri": "textures/Clouds_baseColor.png"
    }
  ],
  "materials": [
    {
      "doubleSided": true,
      "emissiveFactor": [
        1.0,
        1.0,
        1.0
      ],
      "emissiveTexture": {
        "index": 2
      },
      "name": "Earth",
      "pbrMetallicRoughness": {
        "baseColorTexture": {
          "index": 0
        },
        "metallicFactor": 0.0,
        "metallicRoughnessTexture": {
          "index": 1
        }
      }
    },
    {
      "alphaMode": "BLEND",
      "doubleSided": true,
      "name": "Clouds",
      "pbrMetallicRoughness": {
        "baseColorFactor": [
          0.7926760664667007,
          0.7926760664667007,
          0.7926760664667007,
          1.0
        ],
        "baseColorTexture": {
          "index": 3
        },
        "metallicFactor": 0.0,
        "roughnessFactor": 0.95
      }
    },
    {
      "alphaMode": "BLEND",
      "emissiveFactor": [
        0.0024157632448504746,
        0.014995978981060826,
        0.056471150570492845
      ],
      "extensions": {
        "KHR_materials_specular": {
          "specularColorFactor": [
            1.0,
            1.0,
            1.0
          ],
          "specularFactor": 0.0
        }
      },
      "name": "Atmo",
      "pbrMetallicRoughness": {
        "baseColorFactor": [
          0.024157632448504746,
          0.14995978981060826,
          0.5647115057049285,
          0.2
        ],
        "metallicFactor": 0.0
      }
    }
  ],
  "meshes": [
    {
      "name": "Earth_Earth_0",
      "primitives": [
        {
          "attributes": {
            "NORMAL": 1,
            "POSITION": 0,
            "TEXCOORD_0": 2
          },
          "indices": 3,
          "material": 0,
          "mode": 4
        }
      ]
    },
    {
      "name": "Clouds_Clouds_0",
      "primitives": [
        {
          "attributes": {
            "NORMAL": 5,
            "POSITION": 4,
            "TEXCOORD_0": 6
          },
          "indices": 7,
          "material": 1,
          "mode": 4
        }
      ]
    },
    {
      "name": "Atmo_Atmo_0",
      "primitives": [
        {
          "attributes": {
            "NORMAL": 9,
            "POSITION": 8,
            "TEXCOORD_0": 10
          },
          "indices": 11,
          "material": 2,
          "mode": 4
        }
      ]
    }
  ],
  "nodes": [
    {
      "children": [
        1
      ],
      "matrix": [
        3.885780586188048e-16,
        6.38378239159465e-16,
        -1.0,
        0.0,
        0.9499029517173767,
        0.3125450015068054,
        5.689992924621924e-16,
        0.0,
        0.3125450015068054,
        -0.9499029517173767,
        -4.884765817874951e-16,
        0.0,
        0.0,
        0.0,
        0.0,
        1.0
      ],
      "name": "Sketchfab_model"
    },
    {
      "children": [
        2
      ],
      "matrix": [
        0.009999999776482582,
        0.0,
        0.0,
        0.0,
        0.0,
        -0.009999999776482582,
        0.0,
        0.0,
        0.0,
        0.0,
        -0.009999999776482582,
        0.0,
        0.0,
        0.0,
        0.0,
        1.0
      ],
      "name": "5753b6e5367d4e54a189718b7d919f06.fbx"
    },
    {
      "children": [
        3
      ],
      "name": "Object_2"
    },
    {
      "children": [
        4,
        5,
        6,
        7,
        13,
        19
      ],
      "name": "RootNode"
    },
    {
      "name": "Atmo",
      "scale": [
        100.0,
        100.0,
        100.0
      ]
    },
    {
      "name": "Clouds",
      "scale": [
        100.0,
        100.0,
        100.0
      ]
    },
    {
      "name": "Earth",
      "scale": [
        100.0,
        100.0,
        100.0
      ]
    },
    {
      "children": [
        8
      ],
      "name": "Earth Bone",
      "scale": [
        100.0,
        100.0,
        100.0
      ]
    },
    {
      "children": [
        9,
        10
      ],
      "name": "Object_8"
    },
    {
      "children": [
        12
      ],
      "name": "_rootJoint"
    },
    {
      "children": [
        11
      ],
      "matrix": [
        100.0,
        0.0,
        0.0,
        0.0,
        0.0,
        100.0,
        0.0,
        0.0,
        0.0,
        0.0,
        100.0,
        0.0,
        0.0,
        0.0,
        0.0,
        1.0
      ],
      "name": "Object_10"
    },
    {
      "mesh": 0,
      "name": "Earth_Earth_0"
    },
    {
      "name": "Bone_00",
      "rotation": [
        0.7071068286895752,
        0.0,
        0.0,
        0.7071067094802856
      ]
    },
    {
      "children": [
        14
      ],
      "name": "Clouds Bone",
      "scale": [
        100.0,
        100.0,
        100.0
      ]
    },
    {
      "children": [
        15,
        16
      ],
      "name": "Object_14"
    },
    {
      "children": [
        18
      ],
      "name": "_rootJoint"
    },
    {
      "children": [
        17
      ],
      "matrix": [
        100.00000000001101,
        -4.2837225516871016e-13,
        -3.214964861884281e-12,
        0.0,
        4.2837225516866704e-13,
        100.00000000000844,
        -9.980732128896282e-13,
        0.0,
        3.2149648618845306e-12,
        9.980732128897164e-13,
        100.00000000001864,
        0.0,
        0.0,
        0.0,
        0.0,
        1.0
      ],
      "name": "Object_16"
    },
    {
      "mesh": 1,
      "name": "Clouds_Clouds_0"
    },
    {
      "name": "Bone_01",
      "rotation": [
        -1.1520230458472724e-07,
        0.70710688829422,
        -0.7071066498756409,
        -1.601552384045135e-07
      ]
    },
    {
      "children": [
        20
      ],
      "name": "Atmo Bone",
      "scale": [
        100.0,
        100.0,
        100.0
      ]
    },
    {
      "children": [
        21,
        22
      ],
      "name": "Object_20"
    },
    {
      "children": [
        24
      ],
      "name": "_rootJoint"
    },
    {
      "children": [
        23
      ],
      "matrix": [
        100.0,
        0.0,
        0.0,
        0.0,
        0.0,
        100.0,
        0.0,
        0.0,
        0.0,
        0.0,
        100.0,
        0.0,
        0.0,
        0.0,
        0.0,
        1.0
      ],
      "name": "Object_22"
    },
    {
      "mesh": 2,
      "name": "Atmo_Atmo_0"
    },
    {
      "name": "Bone_02",
      "rotation": [
        0.7071068286895752,
        0.0,
        0.0,
        0.7071067094802856
      ]
    }
  ],
  "samplers": [
    {
      "magFilter": 9729,
      "minFilter": 9987,
      "wrapS": 10497,
      "wrapT": 10497
    }
  ],
  "scene": 0,
  "scenes": [
    {
      "name": "Sketchfab_Scene",
      "nodes": [
        0
      ]
    }
  ],
  "skins": [
    {
      "inverseBindMatrices": 12,
      "joints": [
        9,
        12
      ],
      "skeleton": 9
    },
    {
      "inverseBindMatrices": 13,
      "joints": [
        15,
        18
      ],
      "skeleton": 15
    },
    {
      "inverseBindMatrices": 14,
      "joints": [
        21,
        24
      ],
      "skeleton": 21
    }
  ],
  "textures": [
    {
      "sampler": 0,
      "source": 0
    },
    {
      "sampler": 0,
      "source": 1
    },
    {
      "sampler": 0,
      "source": 2
    },
    {
      "sampler": 0,
      "source": 3
    }
  ]
}
